<mxfile host="app.diagrams.net" agent="Mozilla/5.0 (Windows NT 10.0; Win64; x64) AppleWebKit/537.36 (KHTML, like Gecko) Chrome/137.0.0.0 Safari/537.36" version="26.2.12">
  <diagram name="Pagina-1" id="Lre8KVcBOep0yCZGj-rJ">
    <mxGraphModel dx="1833" dy="814" grid="1" gridSize="10" guides="1" tooltips="1" connect="1" arrows="1" fold="1" page="1" pageScale="1" pageWidth="827" pageHeight="1169" math="0" shadow="0">
      <root>
        <mxCell id="0" />
        <mxCell id="1" parent="0" />
        <mxCell id="6YP_ozw37c2qq-cDZAPU-49" value="" style="html=1;outlineConnect=0;whiteSpace=wrap;fillColor=#dae8fc;shape=mxgraph.archimate.rounded=1;strokeColor=#6c8ebf;" parent="1" vertex="1">
          <mxGeometry x="11" y="860" width="769" height="220" as="geometry" />
        </mxCell>
        <mxCell id="6YP_ozw37c2qq-cDZAPU-15" value="" style="html=1;outlineConnect=0;whiteSpace=wrap;fillColor=#dae8fc;shape=mxgraph.archimate.rounded=1;strokeColor=#6c8ebf;" parent="1" vertex="1">
          <mxGeometry x="11" y="20" width="769" height="840" as="geometry" />
        </mxCell>
        <object placeholders="1" c4Name="Drone-identification" c4Type="Service" c4Technology="Spring Boot" c4Description="Enables electronic identification of drones." label="&lt;font style=&quot;font-size: 16px&quot;&gt;&lt;b&gt;%c4Name%&lt;/b&gt;&lt;/font&gt;&lt;div&gt;[%c4Type%:&amp;nbsp;%c4Technology%]&lt;/div&gt;&lt;br&gt;&lt;div&gt;&lt;font style=&quot;font-size: 11px&quot;&gt;&lt;font color=&quot;#E6E6E6&quot;&gt;%c4Description%&lt;/font&gt;&lt;/div&gt;" id="6YP_ozw37c2qq-cDZAPU-2">
          <mxCell style="shape=hexagon;size=50;perimeter=hexagonPerimeter2;whiteSpace=wrap;html=1;fixedSize=1;rounded=1;labelBackgroundColor=none;fillColor=#23A2D9;fontSize=12;fontColor=#ffffff;align=center;strokeColor=#0E7DAD;metaEdit=1;points=[[0.5,0,0],[1,0.25,0],[1,0.5,0],[1,0.75,0],[0.5,1,0],[0,0.75,0],[0,0.5,0],[0,0.25,0]];resizable=0;direction=west;rotation=0;" parent="1" vertex="1">
            <mxGeometry x="180" y="70" width="200" height="170" as="geometry" />
          </mxCell>
        </object>
        <object placeholders="1" c4Name="Geo-awareness" c4Type="Service" c4Technology="Spring Boot" c4Description=" Provides information about&#xa;geographical zones and &#xa;support points." label="&lt;font style=&quot;font-size: 16px&quot;&gt;&lt;b&gt;%c4Name%&lt;/b&gt;&lt;/font&gt;&lt;div&gt;[%c4Type%:&amp;nbsp;%c4Technology%]&lt;/div&gt;&lt;br&gt;&lt;div&gt;&lt;font style=&quot;font-size: 11px&quot;&gt;&lt;font color=&quot;#E6E6E6&quot;&gt;%c4Description%&lt;/font&gt;&lt;/div&gt;" id="6YP_ozw37c2qq-cDZAPU-3">
          <mxCell style="shape=hexagon;size=50;perimeter=hexagonPerimeter2;whiteSpace=wrap;html=1;fixedSize=1;rounded=1;labelBackgroundColor=none;fillColor=#23A2D9;fontSize=12;fontColor=#ffffff;align=center;strokeColor=#0E7DAD;metaEdit=1;points=[[0.5,0,0],[1,0.25,0],[1,0.5,0],[1,0.75,0],[0.5,1,0],[0,0.75,0],[0,0.5,0],[0,0.25,0]];resizable=0;direction=west;rotation=0;" parent="1" vertex="1">
            <mxGeometry x="450" y="70" width="200" height="170" as="geometry" />
          </mxCell>
        </object>
        <object placeholders="1" c4Name="Geo-authorization" c4Type="Service" c4Technology="Spring Boot" c4Description="Grants permission for drone flights within U-space airspace" label="&lt;font style=&quot;font-size: 16px&quot;&gt;&lt;b&gt;%c4Name%&lt;/b&gt;&lt;/font&gt;&lt;div&gt;[%c4Type%:&amp;nbsp;%c4Technology%]&lt;/div&gt;&lt;br&gt;&lt;div&gt;&lt;font style=&quot;font-size: 11px&quot;&gt;&lt;font color=&quot;#E6E6E6&quot;&gt;%c4Description%&lt;/font&gt;&lt;/div&gt;" id="6YP_ozw37c2qq-cDZAPU-4">
          <mxCell style="shape=hexagon;size=50;perimeter=hexagonPerimeter2;whiteSpace=wrap;html=1;fixedSize=1;rounded=1;labelBackgroundColor=none;fillColor=#23A2D9;fontSize=12;fontColor=#ffffff;align=center;strokeColor=#0E7DAD;metaEdit=1;points=[[0.5,0,0],[1,0.25,0],[1,0.5,0],[1,0.75,0],[0.5,1,0],[0,0.75,0],[0,0.5,0],[0,0.25,0]];resizable=0;direction=west;rotation=0;" parent="1" vertex="1">
            <mxGeometry x="520" y="330" width="200" height="170" as="geometry" />
          </mxCell>
        </object>
        <object placeholders="1" c4Name="Weather" c4Type="Service" c4Technology="Spring Boot" c4Description="Provides up-to-date &#xa;weather data." label="&lt;font style=&quot;font-size: 16px&quot;&gt;&lt;b&gt;%c4Name%&lt;/b&gt;&lt;/font&gt;&lt;div&gt;[%c4Type%:&amp;nbsp;%c4Technology%]&lt;/div&gt;&lt;br&gt;&lt;div&gt;&lt;font style=&quot;font-size: 11px&quot;&gt;&lt;font color=&quot;#E6E6E6&quot;&gt;%c4Description%&lt;/font&gt;&lt;/div&gt;" id="6YP_ozw37c2qq-cDZAPU-5">
          <mxCell style="shape=hexagon;size=50;perimeter=hexagonPerimeter2;whiteSpace=wrap;html=1;fixedSize=1;rounded=1;labelBackgroundColor=none;fillColor=#23A2D9;fontSize=12;fontColor=#ffffff;align=center;strokeColor=#0E7DAD;metaEdit=1;points=[[0.5,0,0],[1,0.25,0],[1,0.5,0],[1,0.75,0],[0.5,1,0],[0,0.75,0],[0,0.5,0],[0,0.25,0]];resizable=0;direction=west;rotation=0;" parent="1" vertex="1">
            <mxGeometry x="21" y="580" width="200" height="170" as="geometry" />
          </mxCell>
        </object>
        <object placeholders="1" c4Name="UI" c4Type="Service" c4Technology="React" c4Description="Provide a graphical interface for managing and utilizing U-space services." label="&lt;font style=&quot;font-size: 16px&quot;&gt;&lt;b&gt;%c4Name%&lt;/b&gt;&lt;/font&gt;&lt;div&gt;[%c4Type%:&amp;nbsp;%c4Technology%]&lt;/div&gt;&lt;br&gt;&lt;div&gt;&lt;font style=&quot;font-size: 11px&quot;&gt;&lt;font color=&quot;#E6E6E6&quot;&gt;%c4Description%&lt;/font&gt;&lt;/div&gt;" id="6YP_ozw37c2qq-cDZAPU-6">
          <mxCell style="shape=hexagon;size=50;perimeter=hexagonPerimeter2;whiteSpace=wrap;html=1;fixedSize=1;rounded=1;labelBackgroundColor=none;fillColor=#23A2D9;fontSize=12;fontColor=#ffffff;align=center;strokeColor=#0E7DAD;metaEdit=1;points=[[0.5,0,0],[1,0.25,0],[1,0.5,0],[1,0.75,0],[0.5,1,0],[0,0.75,0],[0,0.5,0],[0,0.25,0]];resizable=0;" parent="1" vertex="1">
            <mxGeometry x="221" y="890" width="200" height="170" as="geometry" />
          </mxCell>
        </object>
        <mxCell id="6YP_ozw37c2qq-cDZAPU-8" value="" style="endArrow=classic;html=1;rounded=0;dashed=1;dashPattern=12 12;" parent="1" source="6YP_ozw37c2qq-cDZAPU-2" target="6YP_ozw37c2qq-cDZAPU-7" edge="1">
          <mxGeometry width="50" height="50" relative="1" as="geometry">
            <mxPoint x="920" y="560" as="sourcePoint" />
            <mxPoint x="970" y="510" as="targetPoint" />
          </mxGeometry>
        </mxCell>
        <mxCell id="6YP_ozw37c2qq-cDZAPU-9" value="Publish" style="edgeLabel;html=1;align=center;verticalAlign=middle;resizable=0;points=[];labelBackgroundColor=none;fontSize=12;" parent="6YP_ozw37c2qq-cDZAPU-8" vertex="1" connectable="0">
          <mxGeometry x="0.0361" y="-4" relative="1" as="geometry">
            <mxPoint x="25" y="-12" as="offset" />
          </mxGeometry>
        </mxCell>
        <mxCell id="6YP_ozw37c2qq-cDZAPU-10" value="" style="endArrow=classic;html=1;rounded=0;dashed=1;dashPattern=12 12;" parent="1" source="6YP_ozw37c2qq-cDZAPU-3" target="6YP_ozw37c2qq-cDZAPU-7" edge="1">
          <mxGeometry width="50" height="50" relative="1" as="geometry">
            <mxPoint x="920" y="560" as="sourcePoint" />
            <mxPoint x="970" y="510" as="targetPoint" />
          </mxGeometry>
        </mxCell>
        <mxCell id="6YP_ozw37c2qq-cDZAPU-11" value="Publish" style="edgeLabel;html=1;align=center;verticalAlign=middle;resizable=0;points=[];labelBackgroundColor=none;fontSize=12;" parent="6YP_ozw37c2qq-cDZAPU-10" vertex="1" connectable="0">
          <mxGeometry x="0.1856" y="-4" relative="1" as="geometry">
            <mxPoint x="-25" y="-6" as="offset" />
          </mxGeometry>
        </mxCell>
        <mxCell id="6YP_ozw37c2qq-cDZAPU-14" value="NGINX" style="aspect=fixed;sketch=0;html=1;dashed=0;whitespace=wrap;verticalLabelPosition=bottom;verticalAlign=top;fillColor=#2875E2;strokeColor=#ffffff;points=[[0.005,0.63,0],[0.1,0.2,0],[0.9,0.2,0],[0.5,0,0],[0.995,0.63,0],[0.72,0.99,0],[0.5,1,0],[0.28,0.99,0]];shape=mxgraph.kubernetes.icon2;prIcon=ing" parent="1" vertex="1">
          <mxGeometry x="681" y="790" width="125" height="120" as="geometry" />
        </mxCell>
        <mxCell id="6YP_ozw37c2qq-cDZAPU-16" value="" style="endArrow=classic;html=1;rounded=0;dashed=1;dashPattern=12 12;" parent="1" source="6YP_ozw37c2qq-cDZAPU-7" target="6YP_ozw37c2qq-cDZAPU-4" edge="1">
          <mxGeometry width="50" height="50" relative="1" as="geometry">
            <mxPoint x="931" y="405" as="sourcePoint" />
            <mxPoint x="735.3499999999999" y="405" as="targetPoint" />
          </mxGeometry>
        </mxCell>
        <mxCell id="6YP_ozw37c2qq-cDZAPU-18" value="Subscribe" style="edgeLabel;html=1;align=center;verticalAlign=middle;resizable=0;points=[];labelBackgroundColor=none;fontSize=12;" parent="6YP_ozw37c2qq-cDZAPU-16" vertex="1" connectable="0">
          <mxGeometry x="-0.0607" y="-2" relative="1" as="geometry">
            <mxPoint x="9" y="-16" as="offset" />
          </mxGeometry>
        </mxCell>
        <mxCell id="6YP_ozw37c2qq-cDZAPU-21" value="" style="strokeColor=#dddddd;shadow=1;strokeWidth=1;rounded=1;absoluteArcSize=1;arcSize=2;" parent="1" vertex="1">
          <mxGeometry x="11" y="800" width="172" height="60" as="geometry" />
        </mxCell>
        <mxCell id="6YP_ozw37c2qq-cDZAPU-22" value="&lt;div&gt;&lt;b&gt;&lt;br&gt;&lt;/b&gt;&lt;/div&gt;&lt;div&gt;&lt;b&gt;Domain&lt;/b&gt;&lt;/div&gt;&lt;b&gt;api.uspace.local&lt;/b&gt;&lt;div&gt;&lt;br&gt;&lt;/div&gt;" style="editableCssRules=.*;html=1;fontColor=#999999;shape=image;verticalLabelPosition=middle;verticalAlign=middle;labelPosition=right;align=left;spacingLeft=20;part=1;points=[];imageAspect=0;image=data:image/svg+xml,PHN2ZyB4bWxucz0iaHR0cDovL3d3dy53My5vcmcvMjAwMC9zdmciIHhtbG5zOnY9Imh0dHBzOi8vdmVjdGEuaW8vbmFubyIgd2lkdGg9IjIwIiBoZWlnaHQ9IjIwIiB2aWV3Qm94PSIwIDAgMjAgMjAiPiYjeGE7CTxzdHlsZSB0eXBlPSJ0ZXh0L2NzcyI+JiN4YTsJLnN0MHtmaWxsOiM0Mjg1ZjQ7fSYjeGE7CS5zdDF7ZmlsbDojNjY5ZGY2O30mI3hhOwkuc3Qye2ZpbGw6I2FlY2JmYTt9JiN4YTsJLnN0M3tmaWxsOiNmZmY7fSYjeGE7CTwvc3R5bGU+JiN4YTsJPHBhdGggY2xhc3M9InN0MCIgZD0iTTkgNmgydjEwSDl6Ii8+JiN4YTsJPHBhdGggY2xhc3M9InN0MSIgZD0iTTIwIDE3SDB2MmgyMHoiLz4mI3hhOwk8cGF0aCBjbGFzcz0ic3QyIiBkPSJNMTIgMTZIOHY0aDR6TTAgMGgyMHY2SDB6Ii8+JiN4YTsJPHBhdGggY2xhc3M9InN0MSIgZD0iTTEwIDBoMTB2NkgxMHoiLz4mI3hhOwk8cGF0aCBjbGFzcz0ic3QzIiBkPSJNMiAyaDJ2MkgyeiIvPiYjeGE7CTxwYXRoIGNsYXNzPSJzdDIiIGQ9Ik0wIDhoMjB2NkgweiIvPiYjeGE7CTxwYXRoIGNsYXNzPSJzdDEiIGQ9Ik0xMCA4aDEwdjZIMTB6Ii8+JiN4YTsJPHBhdGggY2xhc3M9InN0MyIgZD0iTTIgMTBoMnYySDJ6Ii8+JiN4YTs8L3N2Zz4=;" parent="6YP_ozw37c2qq-cDZAPU-21" vertex="1">
          <mxGeometry width="30" height="30" relative="1" as="geometry">
            <mxPoint x="15" y="15" as="offset" />
          </mxGeometry>
        </mxCell>
        <mxCell id="6YP_ozw37c2qq-cDZAPU-33" value="MongoDB" style="sketch=0;points=[[0,0,0],[0.25,0,0],[0.5,0,0],[0.75,0,0],[1,0,0],[0,1,0],[0.25,1,0],[0.5,1,0],[0.75,1,0],[1,1,0],[0,0.25,0],[0,0.5,0],[0,0.75,0],[1,0.25,0],[1,0.5,0],[1,0.75,0]];outlineConnect=0;fontColor=#232F3E;fillColor=#C925D1;strokeColor=#ffffff;dashed=0;verticalLabelPosition=bottom;verticalAlign=top;align=center;html=1;fontSize=12;fontStyle=0;aspect=fixed;shape=mxgraph.aws4.resourceIcon;resIcon=mxgraph.aws4.documentdb_with_mongodb_compatibility;" parent="1" vertex="1">
          <mxGeometry x="570" y="208" width="50" height="50" as="geometry" />
        </mxCell>
        <mxCell id="6YP_ozw37c2qq-cDZAPU-35" value="" style="image;aspect=fixed;html=1;points=[];align=center;fontSize=12;image=img/lib/azure2/databases/Azure_Database_PostgreSQL_Server.svg;" parent="1" vertex="1">
          <mxGeometry x="650" y="470" width="40.5" height="54" as="geometry" />
        </mxCell>
        <mxCell id="6YP_ozw37c2qq-cDZAPU-47" value="MongoDB" style="sketch=0;points=[[0,0,0],[0.25,0,0],[0.5,0,0],[0.75,0,0],[1,0,0],[0,1,0],[0.25,1,0],[0.5,1,0],[0.75,1,0],[1,1,0],[0,0.25,0],[0,0.5,0],[0,0.75,0],[1,0.25,0],[1,0.5,0],[1,0.75,0]];outlineConnect=0;fontColor=#232F3E;fillColor=#C925D1;strokeColor=#ffffff;dashed=0;verticalLabelPosition=bottom;verticalAlign=top;align=center;html=1;fontSize=12;fontStyle=0;aspect=fixed;shape=mxgraph.aws4.resourceIcon;resIcon=mxgraph.aws4.documentdb_with_mongodb_compatibility;" parent="1" vertex="1">
          <mxGeometry x="205" y="210" width="50" height="50" as="geometry" />
        </mxCell>
        <mxCell id="6YP_ozw37c2qq-cDZAPU-50" value="" style="strokeColor=#dddddd;shadow=1;strokeWidth=1;rounded=1;absoluteArcSize=1;arcSize=2;" parent="1" vertex="1">
          <mxGeometry x="11" y="860" width="172" height="60" as="geometry" />
        </mxCell>
        <mxCell id="6YP_ozw37c2qq-cDZAPU-51" value="&lt;div&gt;&lt;b&gt;&lt;br&gt;&lt;/b&gt;&lt;/div&gt;&lt;div&gt;&lt;b&gt;Domain&lt;/b&gt;&lt;/div&gt;&lt;b&gt;uspace.local&lt;/b&gt;&lt;div&gt;&lt;br&gt;&lt;/div&gt;" style="editableCssRules=.*;html=1;fontColor=#999999;shape=image;verticalLabelPosition=middle;verticalAlign=middle;labelPosition=right;align=left;spacingLeft=20;part=1;points=[];imageAspect=0;image=data:image/svg+xml,PHN2ZyB4bWxucz0iaHR0cDovL3d3dy53My5vcmcvMjAwMC9zdmciIHhtbG5zOnY9Imh0dHBzOi8vdmVjdGEuaW8vbmFubyIgd2lkdGg9IjIwIiBoZWlnaHQ9IjIwIiB2aWV3Qm94PSIwIDAgMjAgMjAiPiYjeGE7CTxzdHlsZSB0eXBlPSJ0ZXh0L2NzcyI+JiN4YTsJLnN0MHtmaWxsOiM0Mjg1ZjQ7fSYjeGE7CS5zdDF7ZmlsbDojNjY5ZGY2O30mI3hhOwkuc3Qye2ZpbGw6I2FlY2JmYTt9JiN4YTsJLnN0M3tmaWxsOiNmZmY7fSYjeGE7CTwvc3R5bGU+JiN4YTsJPHBhdGggY2xhc3M9InN0MCIgZD0iTTkgNmgydjEwSDl6Ii8+JiN4YTsJPHBhdGggY2xhc3M9InN0MSIgZD0iTTIwIDE3SDB2MmgyMHoiLz4mI3hhOwk8cGF0aCBjbGFzcz0ic3QyIiBkPSJNMTIgMTZIOHY0aDR6TTAgMGgyMHY2SDB6Ii8+JiN4YTsJPHBhdGggY2xhc3M9InN0MSIgZD0iTTEwIDBoMTB2NkgxMHoiLz4mI3hhOwk8cGF0aCBjbGFzcz0ic3QzIiBkPSJNMiAyaDJ2MkgyeiIvPiYjeGE7CTxwYXRoIGNsYXNzPSJzdDIiIGQ9Ik0wIDhoMjB2NkgweiIvPiYjeGE7CTxwYXRoIGNsYXNzPSJzdDEiIGQ9Ik0xMCA4aDEwdjZIMTB6Ii8+JiN4YTsJPHBhdGggY2xhc3M9InN0MyIgZD0iTTIgMTBoMnYySDJ6Ii8+JiN4YTs8L3N2Zz4=;" parent="6YP_ozw37c2qq-cDZAPU-50" vertex="1">
          <mxGeometry width="30" height="30" relative="1" as="geometry">
            <mxPoint x="15" y="15" as="offset" />
          </mxGeometry>
        </mxCell>
        <mxCell id="6YP_ozw37c2qq-cDZAPU-57" style="edgeStyle=orthogonalEdgeStyle;rounded=0;orthogonalLoop=1;jettySize=auto;html=1;exitX=0.5;exitY=1;exitDx=0;exitDy=0;exitPerimeter=0;" parent="1" source="6YP_ozw37c2qq-cDZAPU-33" target="6YP_ozw37c2qq-cDZAPU-33" edge="1">
          <mxGeometry relative="1" as="geometry" />
        </mxCell>
        <mxCell id="6YP_ozw37c2qq-cDZAPU-60" value="" style="endArrow=classic;html=1;rounded=0;exitX=0.083;exitY=0.5;exitDx=0;exitDy=0;exitPerimeter=0;" parent="1" source="6YP_ozw37c2qq-cDZAPU-14" target="6YP_ozw37c2qq-cDZAPU-5" edge="1">
          <mxGeometry width="50" height="50" relative="1" as="geometry">
            <mxPoint x="264" y="570" as="sourcePoint" />
            <mxPoint x="314" y="520" as="targetPoint" />
            <Array as="points" />
          </mxGeometry>
        </mxCell>
        <mxCell id="6YP_ozw37c2qq-cDZAPU-61" value="/weather" style="edgeLabel;html=1;align=center;verticalAlign=middle;resizable=0;points=[];labelBackgroundColor=none;fontSize=13;" parent="6YP_ozw37c2qq-cDZAPU-60" vertex="1" connectable="0">
          <mxGeometry x="0.2146" y="5" relative="1" as="geometry">
            <mxPoint x="-70" y="-6" as="offset" />
          </mxGeometry>
        </mxCell>
        <mxCell id="6YP_ozw37c2qq-cDZAPU-62" value="" style="endArrow=classic;html=1;rounded=0;exitX=0.301;exitY=0.153;exitDx=0;exitDy=0;exitPerimeter=0;entryX=0.5;entryY=0;entryDx=0;entryDy=0;entryPerimeter=0;" parent="1" source="6YP_ozw37c2qq-cDZAPU-14" target="6YP_ozw37c2qq-cDZAPU-4" edge="1">
          <mxGeometry width="50" height="50" relative="1" as="geometry">
            <mxPoint x="264" y="570" as="sourcePoint" />
            <mxPoint x="314" y="520" as="targetPoint" />
            <Array as="points">
              <mxPoint x="620" y="670" />
            </Array>
          </mxGeometry>
        </mxCell>
        <mxCell id="6YP_ozw37c2qq-cDZAPU-63" value="/authorization" style="edgeLabel;html=1;align=center;verticalAlign=middle;resizable=1;points=[];fillColor=#00FFFF;labelBorderColor=none;labelBackgroundColor=none;fontSize=13;" parent="6YP_ozw37c2qq-cDZAPU-62" vertex="1" connectable="0">
          <mxGeometry x="-0.2007" y="-3" relative="1" as="geometry">
            <mxPoint x="-72" y="-76" as="offset" />
          </mxGeometry>
        </mxCell>
        <mxCell id="6YP_ozw37c2qq-cDZAPU-69" value="" style="endArrow=classic;html=1;rounded=0;entryX=1;entryY=0.5;entryDx=0;entryDy=0;entryPerimeter=0;exitX=0.147;exitY=0.807;exitDx=0;exitDy=0;exitPerimeter=0;" parent="1" source="6YP_ozw37c2qq-cDZAPU-14" target="6YP_ozw37c2qq-cDZAPU-6" edge="1">
          <mxGeometry width="50" height="50" relative="1" as="geometry">
            <mxPoint x="553" y="730" as="sourcePoint" />
            <mxPoint x="603" y="680" as="targetPoint" />
          </mxGeometry>
        </mxCell>
        <mxCell id="6YP_ozw37c2qq-cDZAPU-70" value="/" style="edgeLabel;html=1;align=center;verticalAlign=middle;resizable=0;points=[];labelBackgroundColor=none;fontSize=13;" parent="6YP_ozw37c2qq-cDZAPU-69" vertex="1" connectable="0">
          <mxGeometry x="-0.0338" y="2" relative="1" as="geometry">
            <mxPoint x="-20" y="-10" as="offset" />
          </mxGeometry>
        </mxCell>
        <mxCell id="6YP_ozw37c2qq-cDZAPU-75" value="PostgreSQL" style="text;html=1;align=center;verticalAlign=middle;whiteSpace=wrap;rounded=0;" parent="1" vertex="1">
          <mxGeometry x="640.25" y="530" width="60" height="30" as="geometry" />
        </mxCell>
        <mxCell id="6YP_ozw37c2qq-cDZAPU-76" value="" style="endArrow=classic;html=1;rounded=0;exitX=0.1;exitY=0.2;exitDx=0;exitDy=0;exitPerimeter=0;" parent="1" source="6YP_ozw37c2qq-cDZAPU-14" target="6YP_ozw37c2qq-cDZAPU-2" edge="1">
          <mxGeometry width="50" height="50" relative="1" as="geometry">
            <mxPoint x="701" y="850" as="sourcePoint" />
            <mxPoint x="371" y="510" as="targetPoint" />
            <Array as="points">
              <mxPoint x="280" y="530" />
            </Array>
          </mxGeometry>
        </mxCell>
        <mxCell id="6YP_ozw37c2qq-cDZAPU-78" value="/drone" style="edgeLabel;html=1;align=center;verticalAlign=middle;resizable=0;points=[];labelBackgroundColor=none;fontSize=13;" parent="6YP_ozw37c2qq-cDZAPU-76" vertex="1" connectable="0">
          <mxGeometry x="0.342" y="-3" relative="1" as="geometry">
            <mxPoint x="228" y="165" as="offset" />
          </mxGeometry>
        </mxCell>
        <mxCell id="6YP_ozw37c2qq-cDZAPU-77" value="" style="endArrow=classic;html=1;rounded=0;entryX=0;entryY=0.5;entryDx=0;entryDy=0;entryPerimeter=0;exitX=0.5;exitY=0;exitDx=0;exitDy=0;exitPerimeter=0;" parent="1" source="6YP_ozw37c2qq-cDZAPU-14" target="6YP_ozw37c2qq-cDZAPU-3" edge="1">
          <mxGeometry width="50" height="50" relative="1" as="geometry">
            <mxPoint x="321" y="560" as="sourcePoint" />
            <mxPoint x="371" y="510" as="targetPoint" />
            <Array as="points">
              <mxPoint x="744" y="240" />
            </Array>
          </mxGeometry>
        </mxCell>
        <mxCell id="6YP_ozw37c2qq-cDZAPU-79" value="/geozone" style="edgeLabel;html=1;align=center;verticalAlign=middle;resizable=0;points=[];labelBackgroundColor=none;fontSize=13;" parent="6YP_ozw37c2qq-cDZAPU-77" vertex="1" connectable="0">
          <mxGeometry x="0.4877" y="-2" relative="1" as="geometry">
            <mxPoint x="-35" y="383" as="offset" />
          </mxGeometry>
        </mxCell>
        <object placeholders="1" c4Name="Simulator" c4Type="Service" c4Technology="Spring Boot" c4Description="Simulation service for&#xa;the drone system" label="&lt;font style=&quot;font-size: 16px&quot;&gt;&lt;b&gt;%c4Name%&lt;/b&gt;&lt;/font&gt;&lt;div&gt;[%c4Type%:&amp;nbsp;%c4Technology%]&lt;/div&gt;&lt;br&gt;&lt;div&gt;&lt;font style=&quot;font-size: 11px&quot;&gt;&lt;font color=&quot;#E6E6E6&quot;&gt;%c4Description%&lt;/font&gt;&lt;/div&gt;" id="i1zN6HpyR8koVKHggfpj-1">
          <mxCell style="shape=hexagon;size=50;perimeter=hexagonPerimeter2;whiteSpace=wrap;html=1;fixedSize=1;rounded=1;labelBackgroundColor=none;fillColor=#23A2D9;fontSize=12;fontColor=#ffffff;align=center;strokeColor=#0E7DAD;metaEdit=1;points=[[0.5,0,0],[1,0.25,0],[1,0.5,0],[1,0.75,0],[0.5,1,0],[0,0.75,0],[0,0.5,0],[0,0.25,0]];resizable=0;direction=west;rotation=0;" parent="1" vertex="1">
            <mxGeometry x="21" y="330" width="200" height="170" as="geometry" />
          </mxCell>
        </object>
        <mxCell id="i1zN6HpyR8koVKHggfpj-2" value="" style="endArrow=classic;html=1;rounded=0;" parent="1" source="i1zN6HpyR8koVKHggfpj-1" target="6YP_ozw37c2qq-cDZAPU-5" edge="1">
          <mxGeometry width="50" height="50" relative="1" as="geometry">
            <mxPoint x="1431" y="530" as="sourcePoint" />
            <mxPoint x="1379" y="448" as="targetPoint" />
            <Array as="points" />
          </mxGeometry>
        </mxCell>
        <mxCell id="i1zN6HpyR8koVKHggfpj-4" value="" style="endArrow=classic;html=1;rounded=0;entryX=0.882;entryY=0.249;entryDx=0;entryDy=0;entryPerimeter=0;" parent="1" source="i1zN6HpyR8koVKHggfpj-1" target="6YP_ozw37c2qq-cDZAPU-4" edge="1">
          <mxGeometry width="50" height="50" relative="1" as="geometry">
            <mxPoint x="1109" y="218" as="sourcePoint" />
            <mxPoint x="1228" y="312" as="targetPoint" />
            <Array as="points">
              <mxPoint x="370" y="500" />
            </Array>
          </mxGeometry>
        </mxCell>
        <mxCell id="i1zN6HpyR8koVKHggfpj-5" value="" style="endArrow=classic;html=1;rounded=0;" parent="1" source="i1zN6HpyR8koVKHggfpj-1" target="6YP_ozw37c2qq-cDZAPU-2" edge="1">
          <mxGeometry width="50" height="50" relative="1" as="geometry">
            <mxPoint x="1109" y="218" as="sourcePoint" />
            <mxPoint x="1228" y="312" as="targetPoint" />
            <Array as="points">
              <mxPoint x="121" y="230" />
            </Array>
          </mxGeometry>
        </mxCell>
        <mxCell id="i1zN6HpyR8koVKHggfpj-6" value="" style="endArrow=classic;html=1;rounded=0;exitX=0.599;exitY=0.995;exitDx=0;exitDy=0;exitPerimeter=0;" parent="1" source="i1zN6HpyR8koVKHggfpj-1" target="6YP_ozw37c2qq-cDZAPU-3" edge="1">
          <mxGeometry width="50" height="50" relative="1" as="geometry">
            <mxPoint x="940" y="165" as="sourcePoint" />
            <mxPoint x="900" y="165" as="targetPoint" />
            <Array as="points">
              <mxPoint x="100" y="120" />
              <mxPoint x="170" y="40" />
              <mxPoint x="310" y="40" />
              <mxPoint x="390" y="40" />
            </Array>
          </mxGeometry>
        </mxCell>
        <mxCell id="i1zN6HpyR8koVKHggfpj-7" value="" style="endArrow=classic;html=1;rounded=0;exitX=0.07;exitY=0.38;exitDx=0;exitDy=0;exitPerimeter=0;" parent="1" source="6YP_ozw37c2qq-cDZAPU-14" target="i1zN6HpyR8koVKHggfpj-1" edge="1">
          <mxGeometry width="50" height="50" relative="1" as="geometry">
            <mxPoint x="701" y="850" as="sourcePoint" />
            <mxPoint x="842" y="580" as="targetPoint" />
            <Array as="points">
              <mxPoint x="330" y="670" />
            </Array>
          </mxGeometry>
        </mxCell>
        <mxCell id="i1zN6HpyR8koVKHggfpj-9" value="/simulator" style="edgeLabel;html=1;align=center;verticalAlign=middle;resizable=0;points=[];labelBackgroundColor=none;fontSize=13;" parent="1" vertex="1" connectable="0">
          <mxGeometry x="470.9996356811903" y="680.0016904285926" as="geometry">
            <mxPoint x="-66" y="-3" as="offset" />
          </mxGeometry>
        </mxCell>
        <mxCell id="6YP_ozw37c2qq-cDZAPU-7" value="ActiveMQ" style="sketch=0;outlineConnect=0;fontColor=#232F3E;gradientColor=none;fillColor=#E7157B;strokeColor=none;dashed=0;verticalLabelPosition=bottom;verticalAlign=top;align=center;html=1;fontSize=12;fontStyle=0;aspect=fixed;pointerEvents=1;shape=mxgraph.aws4.mq_broker;" parent="1" vertex="1">
          <mxGeometry x="335.35" y="280" width="135.65" height="120" as="geometry" />
        </mxCell>
      </root>
    </mxGraphModel>
  </diagram>
</mxfile>
